<svg id="Capa_1" data-name="Capa 1" xmlns="http://www.w3.org/2000/svg" viewBox="0 0 67 67"><defs><style>.cls-1{fill:#f9ebff;}.cls-2{fill:#5e06e8;}</style></defs><rect class="cls-1" width="67" height="67"/><path class="cls-2" d="M51,52.6H21.21a5.15,5.15,0,0,1-5.15-5.15V25.92a5.12,5.12,0,0,1,5.15-5.15.51.51,0,0,1,.54.54v4.07H51a.51.51,0,0,1,.53.54V52.06A.51.51,0,0,1,51,52.6ZM17.13,47.45a4.08,4.08,0,0,0,4.08,4.08h29.2V26.46H21.75V42.88a.51.51,0,0,1-.54.54,4.27,4.27,0,0,0-2.9,1.18A4,4,0,0,0,17.13,47.45ZM20.67,21.9a4,4,0,0,0-2.36,1.18,3.82,3.82,0,0,0-1.18,2.84V44.33a3.72,3.72,0,0,1,.43-.48,5.31,5.31,0,0,1,3.11-1.5Z"/><path class="cls-2" d="M47.3,24.2H30.6a.55.55,0,0,1-.53-.53v-6a.51.51,0,0,1,.53-.54H47.3a3.48,3.48,0,0,1,3.49,3.49A3.53,3.53,0,0,1,47.3,24.2ZM31.14,23.13H47.3a2.4,2.4,0,0,0,2.41-2.42A2.47,2.47,0,0,0,49,19a2.31,2.31,0,0,0-1.71-.7l-16.16-.05Z"/><path class="cls-2" d="M30.6,24.2a.43.43,0,0,1-.21-.05L22.6,21.2a.48.48,0,0,1-.32-.49.55.55,0,0,1,.32-.48l7.79-2.95a.56.56,0,0,1,.7.32.57.57,0,0,1-.33.7l-6.44,2.36,6.5,2.47a.56.56,0,0,1,.32.7A.65.65,0,0,1,30.6,24.2Z"/><path class="cls-2" d="M45.36,24.2h0a.5.5,0,0,1-.53-.53v-6a.51.51,0,0,1,.53-.54h0a.51.51,0,0,1,.54.54v6A.57.57,0,0,1,45.36,24.2Z"/><path class="cls-2" d="M45.36,21.2H30.6a.54.54,0,0,1,0-1.08H45.36a.51.51,0,0,1,.54.54A.54.54,0,0,1,45.36,21.2Z"/><path class="cls-2" d="M34.84,51H23.3a.51.51,0,0,1-.53-.54V27.85a.5.5,0,0,1,.53-.53H34.84a.5.5,0,0,1,.54.53v22.6A.54.54,0,0,1,34.84,51Zm-11-1.07H34.31V28.39H23.84Z"/><path class="cls-2" d="M28,32.85H24.91a.51.51,0,0,1-.53-.54V29.52a.51.51,0,0,1,.53-.54H28a.51.51,0,0,1,.53.54v2.79A.58.58,0,0,1,28,32.85ZM25.4,31.77h2V30.05h-2Z"/><path class="cls-2" d="M33,32.85H29.9a.51.51,0,0,1-.53-.54V29.52A.51.51,0,0,1,29.9,29H33a.51.51,0,0,1,.53.54v2.79A.54.54,0,0,1,33,32.85Zm-2.58-1.08h2V30.05h-2Z"/><path class="cls-2" d="M28,37.68H24.91a.51.51,0,0,1-.53-.54V34.35a.51.51,0,0,1,.53-.54H28a.51.51,0,0,1,.53.54v2.79A.58.58,0,0,1,28,37.68ZM25.4,36.6h2V34.89h-2Z"/><path class="cls-2" d="M33,37.68H29.9a.51.51,0,0,1-.53-.54V34.35a.51.51,0,0,1,.53-.54H33a.51.51,0,0,1,.53.54v2.79A.54.54,0,0,1,33,37.68ZM30.44,36.6h2V34.89h-2Z"/><path class="cls-2" d="M28,42.51H24.91a.51.51,0,0,1-.53-.54V39.18a.51.51,0,0,1,.53-.54H28a.51.51,0,0,1,.53.54V42A.54.54,0,0,1,28,42.51ZM25.4,41.43h2V39.72h-2Z"/><path class="cls-2" d="M33,42.51H29.9a.51.51,0,0,1-.53-.54V39.18a.51.51,0,0,1,.53-.54H33a.51.51,0,0,1,.53.54V42A.51.51,0,0,1,33,42.51Zm-2.58-1.08h2V39.72h-2Z"/><path class="cls-2" d="M31.68,51H26.47a.51.51,0,0,1-.54-.54V44a.51.51,0,0,1,.54-.54h5.21a.5.5,0,0,1,.53.54v6.49A.54.54,0,0,1,31.68,51ZM27,49.92h4.13V44.49H27Z"/><path class="cls-2" d="M49.28,49.11H36.83a.51.51,0,0,1-.54-.54V33a.52.52,0,0,1,.38-.49.62.62,0,0,1,.59.16L49.71,48.25a.59.59,0,0,1,.06.59A.58.58,0,0,1,49.28,49.11ZM37.37,48H48.21L37.37,34.56Z"/><path class="cls-2" d="M44.5,46.86H39.14a.51.51,0,0,1-.54-.54V39.61a.5.5,0,0,1,.38-.48.59.59,0,0,1,.59.16L44.93,46a.56.56,0,0,1,.06.59A.92.92,0,0,1,44.5,46.86Zm-4.88-1.08h3.7l-3.7-4.61Z"/><path class="cls-2" d="M38,32.09a.5.5,0,0,1-.54-.53V27.85a.54.54,0,0,1,1.07,0v3.71A.5.5,0,0,1,38,32.09Z"/><path class="cls-2" d="M40.53,32.09a.5.5,0,0,1-.53-.53V27.85a.5.5,0,0,1,.53-.53.51.51,0,0,1,.54.53v3.71A.51.51,0,0,1,40.53,32.09Z"/><path class="cls-2" d="M43.11,32.09a.51.51,0,0,1-.54-.53V27.85a.54.54,0,0,1,1.08,0v3.71A.51.51,0,0,1,43.11,32.09Z"/><path class="cls-2" d="M45.69,32.09a.5.5,0,0,1-.54-.53V27.85a.54.54,0,0,1,1.07,0v3.71A.5.5,0,0,1,45.69,32.09Z"/><path class="cls-2" d="M48.26,32.09a.5.5,0,0,1-.53-.53V27.85a.5.5,0,0,1,.53-.53.51.51,0,0,1,.54.53v3.71A.51.51,0,0,1,48.26,32.09Z"/></svg>