<svg id="Capa_1" data-name="Capa 1" xmlns="http://www.w3.org/2000/svg" viewBox="0 0 67 67"><defs><style>.cls-1{fill:#f9ebff;}.cls-2,.cls-3{fill:#5e06e8;}.cls-3{fill-rule:evenodd;}</style></defs><rect class="cls-1" width="67" height="67"/><polygon class="cls-2" points="23.51 31.74 22.15 30.38 23.51 29.02 22.82 28.32 20.75 30.38 22.82 32.44 23.51 31.74"/><polygon class="cls-2" points="27.62 32.44 29.68 30.38 27.62 28.32 26.93 29.02 28.29 30.38 26.93 31.74 27.62 32.44"/><rect class="cls-2" x="24.73" y="25.98" width="0.98" height="8.8" transform="matrix(0.92, -0.38, 0.38, 0.92, -9.71, 11.96)"/><rect class="cls-2" x="14.59" y="31.97" width="5.7" height="0.98"/><rect class="cls-2" x="14.59" y="29.23" width="5.7" height="0.98"/><rect class="cls-2" x="14.59" y="23.74" width="2.83" height="0.98"/><rect class="cls-2" x="18.73" y="23.74" width="1.55" height="0.98"/><rect class="cls-2" x="17.46" y="26.49" width="2.83" height="0.98"/><rect class="cls-2" x="14.59" y="26.49" width="1.55" height="0.98"/><rect class="cls-2" x="14.59" y="37.46" width="2.83" height="0.98"/><rect class="cls-2" x="14.59" y="34.72" width="1.55" height="0.98"/><rect class="cls-2" x="17.46" y="34.72" width="2.83" height="0.98"/><rect class="cls-2" x="18.73" y="37.46" width="1.55" height="0.98"/><rect class="cls-2" x="30.15" y="31.97" width="5.7" height="0.98"/><rect class="cls-2" x="30.15" y="29.23" width="5.7" height="0.98"/><rect class="cls-2" x="30.15" y="23.74" width="2.83" height="0.98"/><rect class="cls-2" x="34.3" y="23.74" width="1.55" height="0.98"/><rect class="cls-2" x="33.02" y="26.49" width="2.83" height="0.98"/><rect class="cls-2" x="30.15" y="26.49" width="1.55" height="0.98"/><rect class="cls-2" x="30.15" y="37.46" width="2.83" height="0.98"/><rect class="cls-2" x="30.15" y="34.72" width="1.55" height="0.98"/><rect class="cls-2" x="33.02" y="34.72" width="2.83" height="0.98"/><rect class="cls-2" x="34.3" y="37.46" width="1.55" height="0.98"/><path class="cls-2" d="M11.11,43.36H22.68l-3.4,3a1.42,1.42,0,0,0,1,2.43h9.88a1.42,1.42,0,0,0,1-2.45l-3.38-3H39.67a1.53,1.53,0,0,0,1.54-1.52V20.35a1.54,1.54,0,0,0-1.54-1.53H11.11a1.89,1.89,0,0,0-1.88,1.89V41.48A1.88,1.88,0,0,0,11.11,43.36Zm19.35,3.72a.43.43,0,0,1-.3.74H20.28A.43.43,0,0,1,20,47.1l.5-.44H30Zm-1.58-1.4H21.56l2.6-2.32h2.12Zm-18.67-25a.9.9,0,0,1,.9-.9H39.67a.54.54,0,0,1,.55.54V41.84a.54.54,0,0,1-.55.54H11.11a.9.9,0,0,1-.9-.9Z"/><path class="cls-2" d="M39.24,20.79h-28V41.4h28Zm-1,19.62H12.18V21.77H38.26Z"/><path class="cls-3" d="M43.62,40.86v1.59a1,1,0,0,0,1,1H53a1,1,0,0,0,1-1V40.86ZM54,25.41v-.86a1,1,0,0,0-1-1H44.65a1,1,0,0,0-1,1v.86ZM49.21,41.76a.58.58,0,0,1,0,.81.57.57,0,0,1-.81-.81.54.54,0,0,1,.4-.17.58.58,0,0,1,.41.17Zm-.41-.66a1.07,1.07,0,1,1,0,2.13,1.05,1.05,0,0,1-1.06-1.06,1.08,1.08,0,0,1,.31-.76A1.06,1.06,0,0,1,48.8,41.1Zm1-16.88a.25.25,0,0,1,0,.49h-2a.25.25,0,0,1,0-.49ZM48,27.63a.25.25,0,0,1,.3-.17.24.24,0,0,1,.17.3l-.9,3.37a.24.24,0,1,1-.47-.13l.9-3.37ZM49,28a.24.24,0,0,1,0-.35.24.24,0,0,1,.34,0h0l1.58,1.58a.23.23,0,0,1,0,.34l-1.58,1.58a.23.23,0,0,1-.34,0,.24.24,0,0,1,0-.35l1.4-1.4Zm-2.65-.35a.25.25,0,0,1,.35.35h0l-1.41,1.4,1.41,1.41a.25.25,0,0,1,0,.34.24.24,0,0,1-.35,0h0l-1.58-1.57a.26.26,0,0,1,0-.35l1.58-1.58ZM54,30.26V25.9H43.62V40.37H54v-.78h-.27a.48.48,0,0,1-.34-.14.59.59,0,0,1-.17-.32l-.15-1.05-.11,0-.12,0-.85.63a.55.55,0,0,1-.34.11.49.49,0,0,1-.34-.14l-.73-.73a.49.49,0,0,1-.14-.34.55.55,0,0,1,.11-.34l.63-.85a.61.61,0,0,0,0-.12s0-.07,0-.11L50,36a.59.59,0,0,1-.32-.17.48.48,0,0,1-.14-.34v-1a.49.49,0,0,1,.14-.34A.58.58,0,0,1,50,33.9l1-.15s0-.08,0-.12a.54.54,0,0,0,0-.11l-.63-.85a.6.6,0,0,1-.11-.34.53.53,0,0,1,.12-.32l0,0,.73-.73a.51.51,0,0,1,.68,0l.85.64.1-.05h0l.11,0,.15-1a.59.59,0,0,1,.17-.33.51.51,0,0,1,.34-.13Zm1.43,3.48a1.67,1.67,0,0,1,0,2.37A1.68,1.68,0,0,1,53,33.74a1.65,1.65,0,0,1,2.37,0Zm-1.18-1a2.17,2.17,0,1,1-2.17,2.17,2.2,2.2,0,0,1,.63-1.53A2.17,2.17,0,0,1,54.23,32.75Zm.71-.77-.18-1.19s0,0,0,0h-1s0,0,0,0L53.51,32a.22.22,0,0,1-.18.2l-.21.08h0l-.2.1a.26.26,0,0,1-.27,0l-1-.71,0,0h0l-.73.74h0a.06.06,0,0,0,0,0l.72,1a.21.21,0,0,1,0,.25h0c0,.08-.07.15-.09.22l-.09.22a.24.24,0,0,1-.19.17h0l-1.2.17,0,0h0v1h0l0,0,1.2.17a.27.27,0,0,1,.2.19,1.19,1.19,0,0,0,.08.2,1.45,1.45,0,0,0,.09.22.23.23,0,0,1,0,.26l-.72,1a.06.06,0,0,0,0,0h0l.73.73h0l1-.72a.25.25,0,0,1,.26,0h0l.21.1.23.09a.21.21,0,0,1,.16.19h0l.18,1.2a0,0,0,0,0,0,0h1a0,0,0,0,0,0,0l.18-1.2a.23.23,0,0,1,.18-.2l.21-.08.21-.1a.26.26,0,0,1,.27,0l1,.72h0l.73-.73h0a0,0,0,0,0,0,0l-.72-1a.25.25,0,0,1,0-.26h0l.1-.21c0-.07,0-.15.08-.23a.23.23,0,0,1,.2-.16h0l1.19-.18h0v-1h0l0,0-1.19-.17A.23.23,0,0,1,57,34l-.08-.21h0a1.21,1.21,0,0,0-.09-.2.23.23,0,0,1,0-.27l.71-1,0,0h0l-.74-.74h0a.05.05,0,0,0,0,0l-1,.72a.27.27,0,0,1-.26,0h0l-.21-.1h0l-.22-.08a.25.25,0,0,1-.17-.2Z"/></svg>