<svg id="Capa_1" data-name="Capa 1" xmlns="http://www.w3.org/2000/svg" viewBox="0 0 67 67"><defs><style>.cls-1{fill:#f9ebff;}.cls-2{fill:#5e06e8;}</style></defs><rect class="cls-1" width="67" height="67"/><path class="cls-2" d="M20.1,28.8l3.37-3.86a.62.62,0,0,1,.51-.22.65.65,0,0,1,.49.26l3.05,4.07,1.72-2.16a.67.67,0,0,1,.94-.06l.07.06,1.42,1.79V22.15H20.1Zm7.71-6a1.93,1.93,0,1,1-1.93,1.93A1.93,1.93,0,0,1,27.81,22.79Z"/><circle class="cls-2" cx="27.81" cy="24.72" r="0.64"/><path class="cls-2" d="M37.46,22.15H48.39V19.58H17.52V40.16H34.25V25.37A3.22,3.22,0,0,1,37.46,22.15ZM33,37.59H18.81V36.3H33Zm0-1.93H18.81V34.37H33Zm0-1.93H18.81V32.44H33Zm0-3.22a.64.64,0,0,1-.64.64H19.45a.64.64,0,0,1-.64-.64v-9a.65.65,0,0,1,.64-.65H32.32a.65.65,0,0,1,.64.65Z"/><polygon class="cls-2" points="38.75 37.59 43.89 37.59 41.32 34.16 38.75 37.59"/><polygon class="cls-2" points="28.51 29.87 30.98 29.87 29.74 28.32 28.51 29.87"/><path class="cls-2" d="M29.1,45.3v3.86h5.21a2.78,2.78,0,0,1-.06-.64V45.3Z"/><path class="cls-2" d="M34.91,50.45H21.38a1.29,1.29,0,0,0,0,2.57H44.54a1.28,1.28,0,0,0,1.28-1.29H37.46A3.16,3.16,0,0,1,34.91,50.45Z"/><polygon class="cls-2" points="45.37 37.41 45.5 37.59 47.7 37.59 46.47 36.04 45.37 37.41"/><polygon class="cls-2" points="20.87 29.87 26.53 29.87 23.92 26.39 20.87 29.87"/><path class="cls-2" d="M51,47.88H35.53v.64a1.94,1.94,0,0,0,1.93,1.93H49A1.94,1.94,0,0,0,51,48.52Zm-6.43,1.93H42V48.52h2.58Z"/><path class="cls-2" d="M51,27.29H35.53v19.3H51Zm-1.29,18H36.82V44H49.68Zm0-1.93H36.82V42.09H49.68Zm0-1.93H36.82V40.16H49.68Zm0-3.21a.64.64,0,0,1-.64.64H37.46a.64.64,0,0,1-.64-.64v-9a.64.64,0,0,1,.64-.64H49a.64.64,0,0,1,.64.64Z"/><path class="cls-2" d="M38.1,36.3l2.71-3.6a.65.65,0,0,1,.93-.09.2.2,0,0,1,.09.09l2.74,3.65L46,34.61a.65.65,0,0,1,.91-.1l.1.1,1.42,1.78V29.87H38.1Zm6.44-5.79a1.93,1.93,0,1,1-1.93,1.93A1.93,1.93,0,0,1,44.54,30.51Z"/><circle class="cls-2" cx="44.54" cy="32.44" r="0.64"/><path class="cls-2" d="M51,25.37A1.93,1.93,0,0,0,49,23.44H37.46a1.93,1.93,0,0,0-1.93,1.93V26H51Zm-8.36,0H41.32V24.08h1.29Zm3.86,0H43.89V24.08h2.58Z"/><path class="cls-2" d="M51,18.93A1.94,1.94,0,0,0,49,17H16.88A1.93,1.93,0,0,0,15,18.93V42.09A1.93,1.93,0,0,0,16.88,44H34.25V41.44H16.88a.63.63,0,0,1-.64-.64V18.93a.64.64,0,0,1,.64-.64H49a.64.64,0,0,1,.64.64v3.28a3.25,3.25,0,0,1,1.29.6Z"/></svg>