<svg xmlns="http://www.w3.org/2000/svg" xmlns:xlink="http://www.w3.org/1999/xlink" id="Layer_1" x="0px" y="0px" width="91.333px" height="63.667px" viewBox="0 0 91.333 63.667" xml:space="preserve">
<g>
	<g>
		<path fill="#FFFFFF" d="M84.698,57.715V55.49c0-0.542-0.419-1.017-0.962-1.017c-0.524-0.006-0.98,0.389-0.98,0.906v2.336H82.25    v-2.256c0-0.542-0.45-0.986-0.98-0.98c-0.53,0-0.968,0.382-0.968,0.956v2.281h-0.505v-3.625h0.468v0.462    c0.234-0.327,0.462-0.512,0.906-0.536c0.536-0.031,1.066,0.204,1.332,0.672c0.296-0.462,0.746-0.715,1.257-0.672    c0.758,0.062,1.443,0.592,1.443,1.529v2.17H84.698z"></path>
		<path fill="#FFFFFF" d="M88.082,57.715l-0.956-1.449l-0.949,1.449h-0.573l1.221-1.849l-1.233-1.775h0.555l0.98,1.381l0.95-1.381    h0.592l-1.258,1.788l1.27,1.837H88.082z"></path>
	</g>
</g>
<g>
	<linearGradient id="SVGID_1_" gradientUnits="userSpaceOnUse" x1="23.2944" y1="18.936" x2="55.9663" y2="18.936">
		<stop offset="0" style="stop-color:#FAAD77"></stop>
		<stop offset="0.3172" style="stop-color:#F3818F"></stop>
		<stop offset="0.6129" style="stop-color:#EF5FA2"></stop>
		<stop offset="1" style="stop-color:#E0519D"></stop>
	</linearGradient>
	<path fill="url(#SVGID_1_)" d="M35.305,18.936c0-2.888,1.147-5.658,3.189-7.701c1.957-1.957,3.914-3.914,5.871-5.87   c-0.24-0.424-0.534-0.819-0.884-1.17C42.459,3.173,41.074,2.6,39.63,2.6c-1.444,0-3.088,0.574-4.109,1.595   c-1.021,1.021-1.854,2.406-1.854,3.85c0,1.815,0,3.622,0,5.622c-1,0-3.112,0-4.927,0c-1.444,0-2.829,0.485-3.851,1.507   c-1.021,1.021-1.594,2.362-1.594,3.806c0,1.445,0.573,2.95,1.594,3.972c1.021,1.021,2.407,1.715,3.851,1.715   c1.815,0,3.927,0,4.927,0c0,1,0,3.345,0,5.16c0,1.444,0.833,2.83,1.854,3.851s2.536,1.595,3.98,1.595s2.894-0.574,3.915-1.595   c0.351-0.351,0.676-0.746,0.916-1.17c-1.957-1.957-3.897-3.914-5.854-5.87C36.436,24.594,35.305,21.824,35.305,18.936z"></path>
	<linearGradient id="SVGID_2_" gradientUnits="userSpaceOnUse" x1="23.2954" y1="18.9355" x2="55.9659" y2="18.9355">
		<stop offset="0" style="stop-color:#FAAD77"></stop>
		<stop offset="0.3172" style="stop-color:#F3818F"></stop>
		<stop offset="0.6129" style="stop-color:#EF5FA2"></stop>
		<stop offset="1" style="stop-color:#E0519D"></stop>
	</linearGradient>
	<path fill="url(#SVGID_2_)" d="M55.966,18.936c0-1.444-0.574-2.829-1.595-3.85c-0.77-0.771-1.747-1.285-2.8-1.492   c-1.28,1.479-1.993,3.374-1.992,5.342c0,1.969,0.712,3.863,1.992,5.342c1.053-0.207,2.03-0.722,2.8-1.492   C55.392,21.765,55.966,20.38,55.966,18.936z"></path>
	<linearGradient id="SVGID_3_" gradientUnits="userSpaceOnUse" x1="34.9023" y1="8.6899" x2="53.7344" y2="8.6899">
		<stop offset="0" style="stop-color:#4DC0B3"></stop>
		<stop offset="0.5054" style="stop-color:#5ECBED"></stop>
		<stop offset="1" style="stop-color:#4286C6"></stop>
	</linearGradient>
	<path fill="url(#SVGID_3_)" d="M44.667,13.667c2,0,4.039,0,5.854,0c0.355,0,0.707-0.053,1.05,0.015   c0.129-0.147,0.261-0.338,0.4-0.477c0.056-0.056,0.112-0.134,0.168-0.19c1.021-1.021,1.595-2.417,1.595-3.862   s-0.574-2.834-1.595-3.856c-1.021-1.021-2.406-1.598-3.851-1.598c-1.444,0-2.829,0.572-3.85,1.593   c-0.024,0.025-0.254,0.049-0.278,0.074c0.459,0.811,0.506,1.731,0.506,2.679C44.667,9.86,44.667,11.667,44.667,13.667z"></path>
	<linearGradient id="SVGID_4_" gradientUnits="userSpaceOnUse" x1="34.915" y1="29.2979" x2="53.7218" y2="29.2979">
		<stop offset="0" style="stop-color:#4DC0B3"></stop>
		<stop offset="0.5054" style="stop-color:#5ECBED"></stop>
		<stop offset="1" style="stop-color:#4286C6"></stop>
	</linearGradient>
	<path fill="url(#SVGID_4_)" d="M44.667,24.667c0,1,0,3.345,0,5.16c0,0.949-0.047,1.869-0.506,2.681   c0.024,0.024,0.151,0.049,0.176,0.074c1.021,1.021,2.457,1.595,3.901,1.595s2.854-0.573,3.876-1.595   c1.021-1.021,1.608-2.406,1.608-3.85c0-1.444-0.568-2.83-1.589-3.851c-0.056-0.056-0.109-0.112-0.165-0.168   c-0.14-0.14-0.27-0.143-0.398-0.291c-0.343,0.068-0.693,0.246-1.048,0.246C48.706,24.667,46.667,24.667,44.667,24.667z"></path>
	<linearGradient id="SVGID_5_" gradientUnits="userSpaceOnUse" x1="23.2051" y1="18.936" x2="55.9795" y2="18.936">
		<stop offset="0" style="stop-color:#FAAD77"></stop>
		<stop offset="0.3172" style="stop-color:#F3818F"></stop>
		<stop offset="0.6129" style="stop-color:#EF5FA2"></stop>
		<stop offset="1" style="stop-color:#E0519D"></stop>
	</linearGradient>
	<path fill="url(#SVGID_5_)" d="M51.571,13.681c-0.343-0.067-0.694-0.015-1.05-0.015c-1.815,0-3.854,0-5.854,0c0-2,0-3.806,0-5.622   c0-0.948-0.047-1.869-0.506-2.68c-1.957,1.957-3.812,3.913-5.768,5.87c-2.042,2.042-3.139,4.813-3.139,7.701   c0,2.889,1.173,5.659,3.215,7.701c1.957,1.957,3.722,3.913,5.679,5.87c0.459-0.812,0.519-1.732,0.519-2.681c0-1.815,0-4.16,0-5.16   c2,0,4.039,0,5.854,0c0.355,0,0.707-0.178,1.05-0.246c-1.28-1.479-1.992-3.4-1.992-5.369   C49.578,17.082,50.291,15.161,51.571,13.681z"></path>
	<linearGradient id="SVGID_6_" gradientUnits="userSpaceOnUse" x1="35.2534" y1="18.936" x2="53.7409" y2="18.936">
		<stop offset="0" style="stop-color:#B9539F"></stop>
		<stop offset="1" style="stop-color:#6053A3"></stop>
	</linearGradient>
	<path fill="url(#SVGID_6_)" d="M51.571,13.681c-0.343-0.067-0.694-0.015-1.05-0.015c-1.815,0-3.854,0-5.854,0c0-2,0-3.806,0-5.622   c0-0.948-0.047-1.869-0.506-2.68c-1.957,1.957-3.812,3.913-5.768,5.87c-2.042,2.042-3.139,4.813-3.139,7.701   c0,2.889,1.173,5.659,3.215,7.701c1.957,1.957,3.722,3.913,5.679,5.87c0.459-0.812,0.519-1.732,0.519-2.681c0-1.815,0-4.16,0-5.16   c2,0,4.039,0,5.854,0c0.355,0,0.707-0.178,1.05-0.246c-1.28-1.479-1.992-3.4-1.992-5.369   C49.578,17.082,50.291,15.161,51.571,13.681z"></path>
</g>
<g>
	<path fill="#FFFFFF" d="M75.412,57.17c0-5.737,0-11.474,0-17.21c0-0.301-0.244-0.545-0.544-0.545c-0.248,0-0.496,0-0.744,0   c-0.301,0-0.545,0.244-0.545,0.545c0,5.736,0,11.473,0,17.21c0,0.3,0.244,0.544,0.545,0.544c0.248,0,0.496,0,0.744,0   C75.168,57.715,75.412,57.471,75.412,57.17z"></path>
	<path fill="#FFFFFF" d="M68.728,57.201c0.016,0.288,0.254,0.514,0.543,0.514c0.215,0,0.429,0,0.645,0   c0.301,0,0.544-0.244,0.544-0.544c0-4.152,0-8.304,0-12.456c0-0.301-0.244-0.545-0.544-0.545c-0.248,0-0.496,0-0.744,0   c-0.301,0-0.544,0.244-0.544,0.545c0,2.211,0,4.424,0,6.636c0,0.578-0.049,1.155-0.148,1.733c-0.099,0.562-0.322,1.082-0.669,1.56   c-0.396,0.528-0.883,0.941-1.46,1.238c-0.578,0.28-1.197,0.421-1.857,0.421c-0.743,0-1.428-0.165-2.055-0.496   c-0.61-0.33-1.106-0.817-1.485-1.46c-0.264-0.462-0.429-0.949-0.496-1.461c-0.066-0.512-0.099-1.032-0.099-1.56   c0-2.204,0-4.408,0-6.611c0-0.301-0.244-0.545-0.545-0.545c-0.248,0-0.496,0-0.743,0c-0.301,0-0.544,0.244-0.544,0.545   c0,2.211,0,4.424,0,6.636c0,0.892,0.058,1.725,0.173,2.5c0.115,0.76,0.379,1.354,0.792,1.783c0.132,0.148,0.255,0.289,0.371,0.421   c0.132,0.132,0.264,0.264,0.396,0.396c0.627,0.594,1.262,1.007,1.906,1.237c0.66,0.232,1.354,0.347,2.08,0.347   c0.941,0,1.808-0.182,2.6-0.545c0.361-0.169,0.682-0.388,0.964-0.656c0.154-0.146,0.379-0.189,0.576-0.111   C68.582,56.803,68.716,56.989,68.728,57.201z"></path>
	<path fill="#FFFFFF" d="M46.639,57.715c0.248,0,0.495,0,0.743,0c0.301,0,0.544-0.244,0.544-0.544c0-0.615,0-1.229,0-1.844   c0-0.121,0.04-0.239,0.114-0.334c0.541-0.696,1.082-1.392,1.623-2.088c0.214-0.276,0.628-0.282,0.85-0.012   c1.271,1.542,2.542,3.083,3.812,4.625c0.104,0.126,0.257,0.199,0.42,0.199c0.313,0,0.625,0,0.938,0   c0.211,0,0.403-0.122,0.493-0.313c0.09-0.191,0.062-0.417-0.073-0.579c-1.526-1.844-3.053-3.688-4.58-5.532   c-0.163-0.196-0.167-0.479-0.011-0.681c1.435-1.854,2.869-3.708,4.303-5.562c0.127-0.165,0.15-0.387,0.058-0.573   c-0.091-0.187-0.281-0.305-0.489-0.305c-0.324,0-0.649,0-0.974,0c-0.17,0-0.329,0.079-0.432,0.213   c-2.017,2.628-4.035,5.256-6.052,7.884c0-4.103,0-8.205,0-12.307c0-0.301-0.244-0.545-0.544-0.545c-0.248,0-0.496,0-0.743,0   c-0.301,0-0.545,0.244-0.545,0.545c0,5.736,0,11.473,0,17.21C46.094,57.471,46.338,57.715,46.639,57.715z"></path>
	<path fill="#FFFFFF" d="M25.17,45.978c-1.403-1.387-3.045-2.088-4.927-2.104c0,0.008,0,0.016,0,0.024   c-1.981,0-3.665,0.702-5.051,2.105c-1.371,1.403-2.055,3.087-2.055,5.051c0,1.948,0.702,3.599,2.105,4.952   c1.419,1.354,3.086,2.031,5.001,2.031c1.964,0,3.624-0.71,4.977-2.129c1.37-1.42,2.055-3.095,2.055-5.027   C27.275,48.999,26.574,47.364,25.17,45.978z M23.982,54.694c-0.974,1.073-2.22,1.609-3.739,1.609c-1.453,0-2.699-0.512-3.739-1.535   c-1.023-1.023-1.536-2.262-1.536-3.714c0-1.469,0.504-2.732,1.51-3.789c1.007-1.073,2.262-1.618,3.764-1.634   c0,0.008,0,0.017,0,0.025c0.677,0,1.329,0.132,1.956,0.396c0.627,0.264,1.181,0.627,1.659,1.089   c0.544,0.512,0.941,1.082,1.188,1.709c0.264,0.61,0.396,1.287,0.396,2.03C25.443,52.35,24.956,53.621,23.982,54.694z"></path>
	<path fill="#FFFFFF" d="M41.39,45.978c-1.403-1.387-3.046-2.088-4.928-2.104c0,0.008,0,0.016,0,0.024   c-1.98,0-3.665,0.702-5.051,2.105c-1.37,1.403-2.055,3.087-2.055,5.051c0,1.948,0.701,3.599,2.104,4.952   c1.42,1.354,3.087,2.031,5.002,2.031c1.965,0,3.624-0.71,4.978-2.129c1.37-1.42,2.055-3.095,2.055-5.027   C43.494,48.999,42.793,47.364,41.39,45.978z M40.201,54.694c-0.974,1.073-2.22,1.609-3.739,1.609c-1.453,0-2.699-0.512-3.739-1.535   c-1.023-1.023-1.535-2.262-1.535-3.714c0-1.469,0.503-2.732,1.51-3.789c1.007-1.073,2.262-1.618,3.764-1.634   c0,0.008,0,0.017,0,0.025c0.677,0,1.329,0.132,1.957,0.396c0.627,0.264,1.18,0.627,1.659,1.089   c0.545,0.512,0.941,1.082,1.188,1.709c0.265,0.61,0.396,1.287,0.396,2.03C41.662,52.35,41.175,53.621,40.201,54.694z"></path>
	<g>
		<g>
			<path fill="#FFFFFF" d="M6.816,46.664H4.115v-1.588h2.701v-4.549h1.753v4.549h3.009v1.588H8.569v11.373H6.816V46.664z"></path>
		</g>
	</g>
</g>
</svg>